<svg id="Layer_1" data-name="Layer 1" xmlns="http://www.w3.org/2000/svg" xmlns:xlink="http://www.w3.org/1999/xlink" viewBox="0 0 600 140.52"><defs><style>.cls-1{fill:none;}.cls-2,.cls-7{fill:#9cc900;}.cls-3{isolation:isolate;}.cls-4{clip-path:url(#clip-path);}.cls-5{fill:#fff;}.cls-5,.cls-7{fill-rule:evenodd;}.cls-6{clip-path:url(#clip-path-2);}.cls-8{clip-path:url(#clip-path-3);}.cls-9{clip-path:url(#clip-path-4);}.cls-10{clip-path:url(#clip-path-5);}.cls-11{clip-path:url(#clip-path-6);}</style><clipPath id="clip-path"><rect class="cls-1" x="50.24" y="93.28" width="60.22" height="12.1"/></clipPath><clipPath id="clip-path-2"><rect class="cls-1" x="107.04" y="28.57" width="8.56" height="8.56"/></clipPath><clipPath id="clip-path-3"><rect class="cls-1" x="48.14" y="42.16" width="63.56" height="41.52"/></clipPath><clipPath id="clip-path-4"><rect class="cls-1" x="10.64" width="140.15" height="140.52"/></clipPath><clipPath id="clip-path-5"><rect class="cls-1" y="51.17" width="25.23" height="21.85"/></clipPath><clipPath id="clip-path-6"><rect class="cls-1" x="10.64" y="65.68" width="140.51" height="74.84"/></clipPath></defs><polygon class="cls-2" points="195.11 104.69 178.77 42.55 187.83 42.55 199.99 90.04 211.97 42.55 221.21 42.55 204.96 104.69 195.11 104.69"/><path class="cls-2" d="M257.34,104.69l-4.88-18.2H236.12l-4.7,18.2h-9l16.42-62.14h10.57l17.31,62.14ZM244.11,55.86l-6,22.2H250.5Z"/><path class="cls-2" d="M274.65,104.69V42.55h20.77c12.7,0,17.76,9.32,17.76,20.33,0,7.81-.89,23-17,23H282.73v18.82Zm19.62-26.63c11.09,0,10.83-9.68,10.83-15.09,0-9.86-4.44-12.43-11.19-12.43H282.73V78.06Z"/><polygon class="cls-2" points="323.21 104.69 323.21 42.55 352.86 42.55 352.86 50.54 331.29 50.54 331.29 68.03 345.14 68.03 342.74 75.84 331.29 75.84 331.29 97.41 352.68 97.41 352.68 104.69 323.21 104.69"/><path class="cls-2" d="M390.67,87.91c.54,5.33,5,9.85,12.25,9.85,8,0,12.43-4.17,12.43-9.49,0-17.4-31.78-11.19-31.78-31.25,0-7.46,6.31-15.36,20.07-15.36,6.12,0,9.41,1,13,2.66,0,.09-1.51,4.44-2.58,7.64a26.38,26.38,0,0,0-10.3-2.13C396,49.83,392,53,392.27,57.64c.62,10.83,32,8.7,32,29.92,0,9.85-6,18.11-21.22,18.11-13.76,0-20.68-8.88-20.95-16.78Z"/><polygon class="cls-2" points="441.36 104.69 441.36 50.54 427.78 50.54 427.78 42.55 463.47 42.55 463.47 50.54 449.44 50.54 449.44 104.69 441.36 104.69"/><path class="cls-2" d="M507.5,88.27c0,13-9.77,17.4-18.55,17.4s-18.73-4.35-18.73-17.4V59.68c0-12.51,7.45-18.55,18.81-18.55,11.9,0,18.47,7.19,18.47,18.64Zm-8.08-26.72c0-7.46-2.66-11.9-10.56-11.9s-10.57,4.26-10.57,11.81V87.11c0,6.57,3.91,10.48,10.57,10.48,6.3,0,10.56-3.82,10.56-10.57Z"/><path class="cls-2" d="M550.38,104.69l-6.48-19a7.6,7.6,0,0,1-2,.18H528.09v18.82H520V42.55h21.3c12,0,17.22,9.41,17.22,20.42,0,6.12-.08,14.82-7.19,20.06l7.28,21.66Zm-10.3-26.63c10,0,10-9.68,10-15.09,0-9.86-4.53-12.34-11.27-12.34H528.09V78.06Z"/><polygon class="cls-2" points="570.35 104.69 570.35 42.55 600 42.55 600 50.54 578.43 50.54 578.43 68.03 592.28 68.03 589.88 75.84 578.43 75.84 578.43 97.41 599.82 97.41 599.82 104.69 570.35 104.69"/><g class="cls-3"><g class="cls-4"><path class="cls-5" d="M54.84,98.38c-1.56-.6-2.24-1-2.24-1.92,0-.7.57-1.41,1.93-1.41a5,5,0,0,1,2.34.56l.5-1.72a6,6,0,0,0-2.79-.59c-2.55,0-4.15,1.44-4.15,3.37,0,1.68,1.23,2.7,3.18,3.4,1.47.54,2.06,1.06,2.06,1.94s-.76,1.6-2.12,1.6a5.87,5.87,0,0,1-2.83-.75l-.48,1.78a6.87,6.87,0,0,0,3.18.74c3,0,4.42-1.63,4.42-3.52,0-1.69-1-2.71-3-3.48m15.4-4.89-1.62,4.69c-.45,1.37-.85,2.81-1.16,4.08h0c-.3-1.31-.66-2.69-1.08-4.07l-1.53-4.7H62l-.78,11.7h2l.26-4.7c.08-1.6.15-3.46.2-5h0c.31,1.46.73,3.06,1.18,4.55l1.56,5h1.64L69.8,100c.53-1.47,1-3,1.39-4.48h0c0,1.58.07,3.41.14,4.92l.23,4.77h2.08L73,93.49Zm12.32-.21c-3.3,0-5.57,2.53-5.57,6.15,0,3.42,2.08,5.95,5.4,5.95S88,103.14,88,99.22c0-3.35-2-5.94-5.42-5.94m-.07,10.38c-2,0-3.24-1.89-3.24-4.29S80.37,95,82.49,95s3.23,2.08,3.23,4.29c0,2.45-1.16,4.37-3.23,4.37m17.78-10.17H97.65L94.58,97.6c-.28.4-.58.82-.86,1.27h0V93.49H91.55v11.7h2.12v-4.11l1.06-1.25,3.3,5.36h2.5l-4.29-6.72Zm5.26,10V100h4.41V98.26h-4.41v-3h4.67V93.49h-6.81v11.7h7.07v-1.75Z"/></g></g><g class="cls-3"><g class="cls-6"><path class="cls-7" d="M111.32,28.57a4.28,4.28,0,1,0,4.28,4.28,4.28,4.28,0,0,0-4.28-4.28m0,7.06a2.78,2.78,0,1,1,2.78-2.78,2.77,2.77,0,0,1-2.78,2.78"/></g></g><g class="cls-3"><g class="cls-8"><path class="cls-7" d="M48.14,44.13v3.78l4.27-1V83.25h3.94v-41H52.74ZM85,65.69a11.75,11.75,0,0,0-1.73-2.22,11.33,11.33,0,0,0-2-1.61,11.48,11.48,0,0,0,3-3.7,10.28,10.28,0,0,0,1.25-5,11.88,11.88,0,0,0-.76-4.29,10.43,10.43,0,0,0-2.16-3.48A10.29,10.29,0,0,0,79.19,43a11.59,11.59,0,0,0-8.86,0,10.42,10.42,0,0,0-3.42,2.35,10.19,10.19,0,0,0-2.19,3.48A11.88,11.88,0,0,0,64,53.16a10.29,10.29,0,0,0,1.26,5,11.48,11.48,0,0,0,3,3.7,11.54,11.54,0,0,0-2,1.64,10.39,10.39,0,0,0-1.73,2.27,13.47,13.47,0,0,0-1.2,2.84A11.93,11.93,0,0,0,62.8,72a13.66,13.66,0,0,0,.77,4.65,10.09,10.09,0,0,0,6,6.13,13.92,13.92,0,0,0,5.11.87,14.53,14.53,0,0,0,5.26-.87,10.29,10.29,0,0,0,3.74-2.44,10,10,0,0,0,2.25-3.69A14.17,14.17,0,0,0,86.65,72a12.46,12.46,0,0,0-.46-3.5A11.82,11.82,0,0,0,85,65.69M68,53.16a7.32,7.32,0,0,1,.57-2.95,7.06,7.06,0,0,1,3.7-3.7A6.37,6.37,0,0,1,74.78,46a6.48,6.48,0,0,1,4.68,2,7,7,0,0,1,1.45,2.25,7.68,7.68,0,0,1,.55,2.95,8.66,8.66,0,0,1-.39,2.57A6,6,0,0,1,79.87,58a6.15,6.15,0,0,1-2.08,1.53,7.25,7.25,0,0,1-3,.57,7.61,7.61,0,0,1-3.09-.57A6,6,0,0,1,69.59,58a6.15,6.15,0,0,1-1.21-2.22A9,9,0,0,1,68,53.16M82,75.75a6.71,6.71,0,0,1-1.83,2.3,7.25,7.25,0,0,1-2.55,1.26,11,11,0,0,1-2.79.38h0A10.75,10.75,0,0,1,72,79.31,7.32,7.32,0,0,1,69.42,78a7,7,0,0,1-1.88-2.32,7.46,7.46,0,0,1-.74-3.5,9.46,9.46,0,0,1,.52-3.15,7.52,7.52,0,0,1,1.5-2.6,7.21,7.21,0,0,1,2.49-1.75,8.56,8.56,0,0,1,3.47-.65,8.08,8.08,0,0,1,3.2.62,7.38,7.38,0,0,1,2.49,1.75A8.2,8.2,0,0,1,82.09,69a8.8,8.8,0,0,1,.57,3.18A8,8,0,0,1,82,75.75m27.57-30.63q-2.19-2.9-7.17-2.9a12.08,12.08,0,0,0-4.46.82,6.86,6.86,0,0,0-2.84,2.19,8.71,8.71,0,0,0-1.5,3.47,21.42,21.42,0,0,0-.44,4.57v20a18.06,18.06,0,0,0,.46,4.26,8.34,8.34,0,0,0,1.53,3.26A7.11,7.11,0,0,0,98,82.84a11.53,11.53,0,0,0,4.4.73,12.81,12.81,0,0,0,4.54-.68,6.53,6.53,0,0,0,2.87-2,7.92,7.92,0,0,0,1.51-3.26,19.74,19.74,0,0,0,.44-4.37v-20q0-5.25-2.19-8.15m-1.7,28.55q0,3.56-1.36,4.79a6,6,0,0,1-4.11,1.23,5.43,5.43,0,0,1-4-1.31c-.83-.88-1.25-2.45-1.25-4.71v-21a10.21,10.21,0,0,1,.41-3.17,5.22,5.22,0,0,1,1.12-2,4,4,0,0,1,1.67-1.1,6.38,6.38,0,0,1,2.1-.33,6.52,6.52,0,0,1,2.05.33,4.17,4.17,0,0,1,1.75,1.1,5.6,5.6,0,0,1,1.21,2,9.28,9.28,0,0,1,.46,3.17Z"/></g></g><g class="cls-3"><g class="cls-9"><path class="cls-5" d="M80.9,0A70.28,70.28,0,0,0,14.55,47.11l2.54,3.69A66.7,66.7,0,0,1,147.21,63.1h3.59A70.27,70.27,0,0,0,80.9,0"/></g></g><g class="cls-3"><g class="cls-10"><polygon class="cls-7" points="12.61 51.17 0 73.02 25.23 73.02 12.61 51.17"/></g></g><g class="cls-3"><g class="cls-11"><path class="cls-7" d="M147.43,65.68c.11,1.51.16,3,.16,4.58a66.69,66.69,0,0,1-133.38,0c0-1.54,0-3.07.16-4.58H10.8c-.1,1.51-.16,3-.16,4.58a70.26,70.26,0,0,0,140.52,0c0-1.54-.06-3.07-.16-4.58Z"/></g></g></svg>